<svg width="952" height="98" viewBox="0 0 952 98" fill="none" xmlns="http://www.w3.org/2000/svg">
<path d="M72.56 35.844C72.728 35.364 72.992 35.004 73.352 34.764C73.736 34.524 74.156 34.404 74.612 34.404C75.188 34.404 75.68 34.584 76.088 34.944C76.52 35.304 76.736 35.784 76.736 36.384C76.736 36.6 76.676 36.912 76.556 37.32L68.816 58.74C68.624 59.22 68.3 59.592 67.844 59.856C67.412 60.12 66.932 60.252 66.404 60.252C65.876 60.252 65.384 60.12 64.928 59.856C64.472 59.592 64.16 59.22 63.992 58.74L58.016 41.784L51.932 58.74C51.74 59.22 51.416 59.592 50.96 59.856C50.528 60.12 50.048 60.252 49.52 60.252C48.992 60.252 48.5 60.12 48.044 59.856C47.612 59.592 47.312 59.22 47.144 58.74L39.404 37.32C39.284 36.96 39.224 36.648 39.224 36.384C39.224 35.784 39.44 35.304 39.872 34.944C40.328 34.584 40.856 34.404 41.456 34.404C41.936 34.404 42.368 34.524 42.752 34.764C43.136 35.004 43.412 35.364 43.58 35.844L49.7 53.448L56 35.952C56.168 35.472 56.444 35.1 56.828 34.836C57.212 34.548 57.632 34.404 58.088 34.404C58.544 34.404 58.964 34.548 59.348 34.836C59.756 35.1 60.044 35.484 60.212 35.988L66.332 53.664L72.56 35.844ZM90.6087 41.964C94.7367 41.964 96.8007 44.376 96.8007 49.2V58.056C96.8007 58.728 96.5967 59.256 96.1887 59.64C95.8047 60.024 95.2647 60.216 94.5687 60.216C93.8727 60.216 93.3207 60.024 92.9127 59.64C92.5047 59.256 92.3007 58.728 92.3007 58.056V49.2C92.3007 47.928 92.0367 47.004 91.5087 46.428C91.0047 45.828 90.2007 45.528 89.0967 45.528C87.8007 45.528 86.7567 45.936 85.9647 46.752C85.1967 47.568 84.8127 48.66 84.8127 50.028V58.056C84.8127 58.728 84.6087 59.256 84.2007 59.64C83.7927 60.024 83.2407 60.216 82.5447 60.216C81.8487 60.216 81.2967 60.024 80.8887 59.64C80.5047 59.256 80.3127 58.728 80.3127 58.056V36.528C80.3127 35.904 80.5167 35.4 80.9247 35.016C81.3567 34.632 81.9087 34.44 82.5807 34.44C83.2527 34.44 83.7927 34.62 84.2007 34.98C84.6087 35.34 84.8127 35.832 84.8127 36.456V44.844C85.4127 43.908 86.2047 43.2 87.1887 42.72C88.1967 42.216 89.3367 41.964 90.6087 41.964ZM109.399 60.288C107.599 60.288 106.015 59.916 104.647 59.172C103.303 58.428 102.259 57.36 101.515 55.968C100.771 54.576 100.399 52.956 100.399 51.108C100.399 49.26 100.771 47.652 101.515 46.284C102.259 44.892 103.303 43.824 104.647 43.08C106.015 42.336 107.599 41.964 109.399 41.964C111.199 41.964 112.771 42.336 114.115 43.08C115.483 43.824 116.527 44.892 117.247 46.284C117.991 47.652 118.363 49.26 118.363 51.108C118.363 52.956 117.991 54.576 117.247 55.968C116.527 57.36 115.483 58.428 114.115 59.172C112.771 59.916 111.199 60.288 109.399 60.288ZM109.363 56.796C110.827 56.796 111.943 56.316 112.711 55.356C113.479 54.396 113.863 52.98 113.863 51.108C113.863 49.26 113.479 47.856 112.711 46.896C111.943 45.912 110.839 45.42 109.399 45.42C107.959 45.42 106.843 45.912 106.051 46.896C105.283 47.856 104.899 49.26 104.899 51.108C104.899 52.98 105.283 54.396 106.051 55.356C106.819 56.316 107.923 56.796 109.363 56.796ZM155.648 43.368C155.816 42.936 156.056 42.612 156.368 42.396C156.704 42.18 157.064 42.072 157.448 42.072C158 42.072 158.492 42.264 158.924 42.648C159.38 43.008 159.608 43.464 159.608 44.016C159.608 44.328 159.548 44.604 159.428 44.844L153.488 58.776C153.296 59.232 152.996 59.58 152.588 59.82C152.204 60.06 151.772 60.18 151.292 60.18C150.836 60.18 150.404 60.06 149.996 59.82C149.612 59.58 149.324 59.232 149.132 58.776L144.848 48.48L140.708 58.776C140.516 59.232 140.216 59.58 139.808 59.82C139.424 60.06 138.992 60.18 138.512 60.18C138.056 60.18 137.624 60.06 137.216 59.82C136.808 59.58 136.508 59.232 136.316 58.776L130.412 44.844C130.292 44.532 130.232 44.268 130.232 44.052C130.232 43.5 130.472 43.032 130.952 42.648C131.432 42.24 131.96 42.036 132.536 42.036C132.944 42.036 133.316 42.144 133.652 42.36C133.988 42.576 134.24 42.9 134.408 43.332L138.656 54.312L143.012 43.44C143.204 42.984 143.48 42.648 143.84 42.432C144.2 42.192 144.596 42.072 145.028 42.072C145.46 42.072 145.856 42.192 146.216 42.432C146.576 42.648 146.852 42.984 147.044 43.44L151.436 54.348L155.648 43.368ZM176.335 55.176C176.743 55.176 177.067 55.332 177.307 55.644C177.571 55.956 177.703 56.376 177.703 56.904C177.703 57.648 177.259 58.272 176.371 58.776C175.555 59.232 174.631 59.604 173.599 59.892C172.567 60.156 171.583 60.288 170.646 60.288C167.815 60.288 165.571 59.472 163.915 57.84C162.259 56.208 161.431 53.976 161.431 51.144C161.431 49.344 161.791 47.748 162.511 46.356C163.231 44.964 164.239 43.884 165.535 43.116C166.855 42.348 168.343 41.964 169.999 41.964C171.583 41.964 172.963 42.312 174.139 43.008C175.315 43.704 176.227 44.688 176.875 45.96C177.523 47.232 177.847 48.732 177.847 50.46C177.847 51.492 177.391 52.008 176.479 52.008H165.859C166.003 53.664 166.471 54.888 167.263 55.68C168.055 56.448 169.207 56.832 170.719 56.832C171.487 56.832 172.159 56.736 172.735 56.544C173.335 56.352 174.007 56.088 174.751 55.752C175.471 55.368 175.999 55.176 176.335 55.176ZM170.107 45.132C168.883 45.132 167.899 45.516 167.155 46.284C166.435 47.052 166.003 48.156 165.859 49.596H173.995C173.947 48.132 173.587 47.028 172.915 46.284C172.243 45.516 171.307 45.132 170.107 45.132ZM198.933 41.964C201.381 41.964 203.193 42.576 204.369 43.8C205.569 45 206.169 46.836 206.169 49.308V58.092C206.169 58.74 205.977 59.256 205.593 59.64C205.209 60 204.681 60.18 204.009 60.18C203.385 60.18 202.869 59.988 202.461 59.604C202.077 59.22 201.885 58.716 201.885 58.092V57.3C201.477 58.236 200.829 58.968 199.941 59.496C199.077 60.024 198.069 60.288 196.917 60.288C195.741 60.288 194.673 60.048 193.713 59.568C192.753 59.088 191.997 58.428 191.445 57.588C190.893 56.748 190.617 55.812 190.617 54.78C190.617 53.484 190.941 52.464 191.589 51.72C192.261 50.976 193.341 50.436 194.829 50.1C196.317 49.764 198.369 49.596 200.985 49.596H201.885V48.768C201.885 47.592 201.633 46.74 201.129 46.212C200.625 45.66 199.809 45.384 198.681 45.384C197.985 45.384 197.277 45.492 196.557 45.708C195.837 45.9 194.985 46.188 194.001 46.572C193.377 46.884 192.921 47.04 192.633 47.04C192.201 47.04 191.841 46.884 191.553 46.572C191.289 46.26 191.157 45.852 191.157 45.348C191.157 44.94 191.253 44.592 191.445 44.304C191.661 43.992 192.009 43.704 192.489 43.44C193.329 42.984 194.325 42.624 195.477 42.36C196.653 42.096 197.805 41.964 198.933 41.964ZM197.817 57.048C199.017 57.048 199.989 56.652 200.733 55.86C201.501 55.044 201.885 54 201.885 52.728V51.972H201.237C199.629 51.972 198.381 52.044 197.493 52.188C196.605 52.332 195.969 52.584 195.585 52.944C195.201 53.304 195.009 53.796 195.009 54.42C195.009 55.188 195.273 55.824 195.801 56.328C196.353 56.808 197.025 57.048 197.817 57.048ZM220.57 42.036C221.194 41.988 221.686 42.12 222.046 42.432C222.406 42.744 222.586 43.212 222.586 43.836C222.586 44.484 222.43 44.964 222.118 45.276C221.806 45.588 221.242 45.792 220.426 45.888L219.346 45.996C217.93 46.14 216.886 46.62 216.214 47.436C215.566 48.252 215.242 49.272 215.242 50.496V58.056C215.242 58.752 215.026 59.292 214.594 59.676C214.162 60.036 213.622 60.216 212.974 60.216C212.326 60.216 211.786 60.036 211.354 59.676C210.946 59.292 210.742 58.752 210.742 58.056V44.124C210.742 43.452 210.946 42.936 211.354 42.576C211.786 42.216 212.314 42.036 212.938 42.036C213.562 42.036 214.066 42.216 214.45 42.576C214.834 42.912 215.026 43.404 215.026 44.052V45.492C215.482 44.436 216.154 43.62 217.042 43.044C217.954 42.468 218.962 42.144 220.066 42.072L220.57 42.036ZM238.104 55.176C238.512 55.176 238.836 55.332 239.076 55.644C239.34 55.956 239.472 56.376 239.472 56.904C239.472 57.648 239.028 58.272 238.14 58.776C237.324 59.232 236.4 59.604 235.368 59.892C234.336 60.156 233.352 60.288 232.416 60.288C229.584 60.288 227.34 59.472 225.684 57.84C224.028 56.208 223.2 53.976 223.2 51.144C223.2 49.344 223.56 47.748 224.28 46.356C225 44.964 226.008 43.884 227.304 43.116C228.624 42.348 230.112 41.964 231.768 41.964C233.352 41.964 234.732 42.312 235.908 43.008C237.084 43.704 237.996 44.688 238.644 45.96C239.292 47.232 239.616 48.732 239.616 50.46C239.616 51.492 239.16 52.008 238.248 52.008H227.628C227.772 53.664 228.24 54.888 229.032 55.68C229.824 56.448 230.976 56.832 232.488 56.832C233.256 56.832 233.928 56.736 234.504 56.544C235.104 56.352 235.776 56.088 236.52 55.752C237.24 55.368 237.768 55.176 238.104 55.176ZM231.876 45.132C230.652 45.132 229.668 45.516 228.924 46.284C228.204 47.052 227.772 48.156 227.628 49.596H235.764C235.716 48.132 235.356 47.028 234.684 46.284C234.012 45.516 233.076 45.132 231.876 45.132Z" fill="#3E3F43"/>
<path d="M0.5 36.2857H6.28571C10.4278 36.2857 13.7857 39.6436 13.7857 43.7857V47.7857H8C3.85787 47.7857 0.5 44.4278 0.5 40.2857V36.2857Z" stroke="#897942" stroke-opacity="0.5"/>
<path d="M16.2143 50.2143H22C26.1421 50.2143 29.5 53.5722 29.5 57.7143V61.7143H23.7143C19.5722 61.7143 16.2143 58.3564 16.2143 54.2143V50.2143Z" stroke="#897942" stroke-opacity="0.5"/>
<path d="M16.2143 42C16.2143 37.8579 19.5722 34.5 23.7143 34.5H27.7143V40.2857C27.7143 44.4278 24.3564 47.7857 20.2143 47.7857H16.2143V42Z" stroke="#897942" stroke-opacity="0.5"/>
<path d="M2.28571 57.7143C2.28571 53.5722 5.64357 50.2143 9.78571 50.2143H13.7857V56C13.7857 60.1421 10.4278 63.5 6.28571 63.5H2.28571V57.7143Z" stroke="#897942" stroke-opacity="0.5"/>
<path d="M625.711 66.16C626.095 67.024 626.287 67.792 626.287 68.464C626.287 69.808 625.735 70.96 624.631 71.92C623.575 72.832 622.351 73.288 620.959 73.288C620.047 73.288 619.183 73.048 618.367 72.568C617.551 72.04 616.927 71.272 616.495 70.264L612.679 61.768H588.271L584.455 70.264C584.023 71.272 583.399 72.04 582.583 72.568C581.815 73.048 580.951 73.288 579.991 73.288C578.599 73.288 577.351 72.832 576.247 71.92C575.143 70.96 574.591 69.808 574.591 68.464C574.591 67.792 574.783 67.024 575.167 66.16L594.607 25.336C595.135 24.184 595.927 23.32 596.983 22.744C598.039 22.12 599.167 21.808 600.367 21.808C601.615 21.808 602.767 22.12 603.823 22.744C604.879 23.368 605.695 24.232 606.271 25.336L625.711 66.16ZM608.863 53.272L600.511 34.552L592.087 53.272H608.863ZM665.094 46.72C668.022 47.584 670.278 49.096 671.862 51.256C673.494 53.368 674.31 55.984 674.31 59.104C674.31 63.376 672.726 66.76 669.558 69.256C666.438 71.752 662.118 73 656.598 73H637.734C636.054 73 634.758 72.544 633.846 71.632C632.934 70.72 632.478 69.424 632.478 67.744V27.496C632.478 25.816 632.934 24.52 633.846 23.608C634.758 22.696 636.054 22.24 637.734 22.24H655.878C661.158 22.24 665.333 23.416 668.406 25.768C671.526 28.12 673.086 31.336 673.086 35.416C673.086 38.056 672.366 40.384 670.926 42.4C669.534 44.368 667.59 45.808 665.094 46.72ZM643.422 42.904H654.006C656.886 42.904 658.998 42.424 660.342 41.464C661.734 40.456 662.43 38.944 662.43 36.928C662.43 34.816 661.734 33.28 660.342 32.32C658.998 31.312 656.886 30.808 654.006 30.808H643.422V42.904ZM655.302 64.432C658.278 64.432 660.438 63.928 661.782 62.92C663.126 61.912 663.797 60.28 663.797 58.024C663.797 55.768 663.126 54.112 661.782 53.056C660.438 52 658.278 51.472 655.302 51.472H643.422V64.432H655.302ZM705.446 73.648C700.406 73.648 696.014 72.592 692.27 70.48C688.574 68.32 685.718 65.296 683.702 61.408C681.686 57.472 680.678 52.864 680.678 47.584C680.678 42.304 681.686 37.72 683.702 33.832C685.718 29.896 688.574 26.872 692.27 24.76C696.014 22.648 700.406 21.592 705.446 21.592C710.486 21.592 714.854 22.648 718.55 24.76C722.294 26.872 725.174 29.896 727.19 33.832C729.206 37.72 730.214 42.304 730.214 47.584C730.214 52.864 729.206 57.472 727.19 61.408C725.174 65.296 722.294 68.32 718.55 70.48C714.854 72.592 710.486 73.648 705.446 73.648ZM705.446 64.936C709.67 64.936 712.982 63.448 715.382 60.472C717.83 57.496 719.054 53.2 719.054 47.584C719.054 41.968 717.854 37.696 715.454 34.768C713.054 31.792 709.718 30.304 705.446 30.304C701.174 30.304 697.838 31.792 695.438 34.768C693.086 37.696 691.91 41.968 691.91 47.584C691.91 53.2 693.11 57.496 695.51 60.472C697.91 63.448 701.222 64.936 705.446 64.936ZM760.318 73.648C753.214 73.648 747.79 71.824 744.046 68.176C740.35 64.48 738.502 59.104 738.502 52.048V27.424C738.502 25.744 739.006 24.4 740.014 23.392C741.022 22.384 742.366 21.88 744.046 21.88C745.726 21.88 747.046 22.384 748.006 23.392C749.014 24.4 749.518 25.744 749.518 27.424V52.552C749.518 56.584 750.43 59.656 752.254 61.768C754.126 63.88 756.814 64.936 760.318 64.936C763.822 64.936 766.51 63.88 768.382 61.768C770.254 59.608 771.19 56.536 771.19 52.552V27.424C771.19 25.744 771.67 24.4 772.63 23.392C773.638 22.384 774.982 21.88 776.662 21.88C778.342 21.88 779.686 22.384 780.694 23.392C781.702 24.4 782.206 25.744 782.206 27.424V52.048C782.206 59.056 780.334 64.408 776.59 68.104C772.846 71.8 767.422 73.648 760.318 73.648ZM809.369 73.36C807.689 73.36 806.321 72.856 805.265 71.848C804.257 70.84 803.753 69.496 803.753 67.816V31.384H792.089C788.537 31.384 786.761 29.848 786.761 26.776C786.761 23.752 788.537 22.24 792.089 22.24H826.649C830.201 22.24 831.977 23.752 831.977 26.776C831.977 29.848 830.201 31.384 826.649 31.384H814.985V67.816C814.985 69.496 814.481 70.84 813.473 71.848C812.465 72.856 811.097 73.36 809.369 73.36ZM878.443 73.648C871.339 73.648 865.915 71.824 862.171 68.176C858.475 64.48 856.627 59.104 856.627 52.048V27.424C856.627 25.744 857.131 24.4 858.139 23.392C859.147 22.384 860.491 21.88 862.171 21.88C863.851 21.88 865.171 22.384 866.131 23.392C867.139 24.4 867.643 25.744 867.643 27.424V52.552C867.643 56.584 868.555 59.656 870.379 61.768C872.251 63.88 874.939 64.936 878.443 64.936C881.947 64.936 884.635 63.88 886.507 61.768C888.379 59.608 889.315 56.536 889.315 52.552V27.424C889.315 25.744 889.795 24.4 890.755 23.392C891.763 22.384 893.107 21.88 894.787 21.88C896.467 21.88 897.811 22.384 898.819 23.392C899.827 24.4 900.331 25.744 900.331 27.424V52.048C900.331 59.056 898.459 64.408 894.715 68.104C890.971 71.8 885.547 73.648 878.443 73.648ZM928.43 73.648C924.638 73.648 921.11 73.216 917.846 72.352C914.582 71.44 911.918 70.168 909.854 68.536C909.134 68.008 908.606 67.456 908.27 66.88C907.982 66.256 907.838 65.488 907.838 64.576C907.838 63.376 908.198 62.32 908.918 61.408C909.686 60.496 910.55 60.04 911.51 60.04C912.038 60.04 912.542 60.136 913.022 60.328C913.55 60.472 914.174 60.76 914.894 61.192C916.958 62.488 919.046 63.448 921.158 64.072C923.27 64.648 925.598 64.936 928.142 64.936C931.31 64.936 933.734 64.408 935.414 63.352C937.094 62.296 937.934 60.784 937.934 58.816C937.934 57.328 937.142 56.128 935.558 55.216C934.022 54.304 931.262 53.44 927.278 52.624C922.814 51.712 919.238 50.608 916.55 49.312C913.91 48.016 911.966 46.408 910.718 44.488C909.518 42.568 908.918 40.24 908.918 37.504C908.918 34.48 909.782 31.768 911.51 29.368C913.286 26.92 915.71 25.024 918.782 23.68C921.902 22.288 925.406 21.592 929.294 21.592C936.11 21.592 941.726 23.296 946.142 26.704C946.862 27.28 947.366 27.88 947.654 28.504C947.99 29.08 948.158 29.8 948.158 30.664C948.158 31.864 947.774 32.92 947.006 33.832C946.286 34.744 945.446 35.2 944.486 35.2C943.958 35.2 943.454 35.128 942.974 34.984C942.542 34.84 941.918 34.528 941.102 34.048C939.134 32.8 937.31 31.864 935.63 31.24C933.998 30.616 931.91 30.304 929.366 30.304C926.438 30.304 924.134 30.88 922.454 32.032C920.774 33.136 919.934 34.672 919.934 36.64C919.934 37.792 920.246 38.752 920.87 39.52C921.542 40.24 922.622 40.888 924.11 41.464C925.646 42.04 927.806 42.64 930.59 43.264C937.118 44.704 941.798 46.552 944.63 48.808C947.51 51.064 948.95 54.16 948.95 58.096C948.95 61.168 948.086 63.88 946.358 66.232C944.678 68.584 942.278 70.408 939.158 71.704C936.086 73 932.51 73.648 928.43 73.648Z" fill="#222222" fill-opacity="0.1"/>
<line x1="257" y1="48.5" x2="573" y2="48.5" stroke="black"/>
</svg>
